<svg width="120" height="120" viewBox="0 0 120 120" fill="none" xmlns="http://www.w3.org/2000/svg">
  <!-- Monochrome version for light backgrounds -->
  
  <!-- Neural Network (simplified) -->
  <g opacity="0.3" stroke="#333" stroke-width="0.5" fill="#333">
    <path d="M25 35 L45 25 L65 40 L85 30 L95 50" fill="none"/>
    <path d="M20 65 L40 55 L60 70 L80 60 L100 80" fill="none"/>
    <circle cx="25" cy="35" r="1.5"/>
    <circle cx="45" cy="25" r="1"/>
    <circle cx="65" cy="40" r="1.5"/>
    <circle cx="85" cy="30" r="1"/>
    <circle cx="95" cy="50" r="1.5"/>
    <circle cx="20" cy="65" r="1"/>
    <circle cx="40" cy="55" r="1.5"/>
    <circle cx="60" cy="70" r="1"/>
    <circle cx="80" cy="60" r="1.5"/>
    <circle cx="100" cy="80" r="1"/>
  </g>
  
  <!-- Greek Delta -->
  <path d="M60 20 L35 80 L85 80 Z" 
        fill="#333" 
        opacity="0.8"/>
  
  <!-- Growth Chart -->
  <path d="M30 75 L42 65 L54 55 L66 45 L78 35 L90 25" 
        stroke="#333" 
        stroke-width="2.5" 
        fill="none"
        stroke-linecap="round"/>
  
  <!-- Chart points -->
  <circle cx="30" cy="75" r="2" fill="#333"/>
  <circle cx="42" cy="65" r="2" fill="#333"/>
  <circle cx="54" cy="55" r="2" fill="#333"/>
  <circle cx="66" cy="45" r="2" fill="#333"/>
  <circle cx="78" cy="35" r="2" fill="#333"/>
  <circle cx="90" cy="25" r="2" fill="#333"/>
  
  <!-- AI Core -->
  <circle cx="60" cy="50" r="6" fill="#333"/>
  <circle cx="60" cy="50" r="3" fill="#fff"/>
</svg>
